<svg width="16" height="18" viewBox="0 0 16 18" fill="none" xmlns="http://www.w3.org/2000/svg">
<path fill-rule="evenodd" clip-rule="evenodd" d="M15.5 8.24777V12.4089C15.5 14.9894 15.5 16.2796 14.8882 16.8434C14.5965 17.1123 14.2282 17.2812 13.8359 17.3261C13.0133 17.4202 12.0527 16.5706 10.1315 14.8714C9.28232 14.1202 8.85771 13.7447 8.36644 13.6457C8.12452 13.597 7.87548 13.597 7.63356 13.6457C7.14229 13.7447 6.71768 14.1202 5.86847 14.8714C3.94728 16.5706 2.98668 17.4202 2.1641 17.3261C1.77179 17.2812 1.40351 17.1123 1.11176 16.8434C0.5 16.2796 0.5 14.9894 0.5 12.4089V8.24777C0.5 4.67393 0.5 2.88701 1.59835 1.77675C2.6967 0.666504 4.46447 0.666504 8 0.666504C11.5355 0.666504 13.3033 0.666504 14.4016 1.77675C15.5 2.88701 15.5 4.67393 15.5 8.24777ZM4.875 3.99984C4.875 3.65466 5.15482 3.37484 5.5 3.37484H10.5C10.8452 3.37484 11.125 3.65466 11.125 3.99984C11.125 4.34502 10.8452 4.62484 10.5 4.62484H5.5C5.15482 4.62484 4.875 4.34502 4.875 3.99984Z" fill="#877EFF"/>
</svg>
