<svg width="18" height="18" viewBox="0 0 18 18" fill="none" xmlns="http://www.w3.org/2000/svg">
<path d="M6.5 3.37484C6.15482 3.37484 5.875 3.65466 5.875 3.99984C5.875 4.34502 6.15482 4.62484 6.5 4.62484H11.5C11.8452 4.62484 12.125 4.34502 12.125 3.99984C12.125 3.65466 11.8452 3.37484 11.5 3.37484H6.5Z" fill="#877EFF"/>
<path fill-rule="evenodd" clip-rule="evenodd" d="M8.95209 0.0415041C7.22495 0.0414919 5.8643 0.0414822 4.80107 0.185979C3.70935 0.334347 2.83841 0.645408 2.15403 1.3372C1.47058 2.02806 1.1641 2.90568 1.01775 4.00601C0.87498 5.07943 0.874989 6.45369 0.875 8.20073V12.449C0.874991 13.7053 0.874984 14.7 0.955008 15.4488C1.03409 16.1889 1.20373 16.8565 1.6882 17.303C2.07688 17.6612 2.56842 17.887 3.09304 17.9471C3.74927 18.0222 4.36199 17.7088 4.96557 17.2813C5.57636 16.8486 6.3173 16.1933 7.25212 15.3664L7.28254 15.3395C7.71593 14.9562 8.00935 14.6975 8.25416 14.5185C8.49076 14.3455 8.63522 14.2829 8.75698 14.2584C8.91743 14.2261 9.08257 14.2261 9.24302 14.2584C9.36478 14.2829 9.50924 14.3455 9.74584 14.5185C9.99065 14.6975 10.2841 14.9562 10.7175 15.3395L10.7479 15.3665C11.6827 16.1933 12.4237 16.8486 13.0344 17.2813C13.638 17.7088 14.2507 18.0222 14.907 17.9471C15.4316 17.887 15.9231 17.6612 16.3118 17.303C16.7963 16.8565 16.9659 16.1889 17.045 15.4488C17.125 14.7 17.125 13.7053 17.125 12.449V8.20071C17.125 6.45369 17.125 5.07942 16.9823 4.00601C16.8359 2.90569 16.5294 2.02806 15.846 1.3372C15.1616 0.645408 14.2907 0.334347 13.1989 0.185979C12.1357 0.0414822 10.7751 0.0414919 9.04791 0.0415041H8.95209ZM3.04267 2.21631C3.45664 1.79785 4.01876 1.55379 4.9694 1.42459C5.93871 1.29286 7.21438 1.2915 9 1.2915C10.7856 1.2915 12.0613 1.29286 13.0306 1.42459C13.9812 1.55379 14.5434 1.79785 14.9573 2.21631C15.3722 2.6357 15.6149 3.20666 15.7432 4.17082C15.8737 5.15227 15.875 6.44337 15.875 8.24777V12.4089C15.875 13.7142 15.8741 14.6416 15.8021 15.316C15.7282 16.0072 15.592 16.2665 15.4647 16.3838C15.2699 16.5634 15.0248 16.6754 14.7649 16.7052C14.5985 16.7242 14.3196 16.6598 13.757 16.2612C13.2081 15.8725 12.5176 15.2629 11.5456 14.4032L11.5238 14.3839C11.1177 14.0248 10.781 13.7269 10.4837 13.5095C10.1728 13.2822 9.85937 13.1075 9.48985 13.033C9.16648 12.9679 8.83352 12.9679 8.51015 13.033C8.14064 13.1075 7.82715 13.2822 7.51633 13.5095C7.21902 13.7269 6.88226 14.0248 6.47621 14.3839L6.45439 14.4032C5.48239 15.2629 4.79189 15.8725 4.24304 16.2612C3.68038 16.6598 3.40151 16.7242 3.23515 16.7052C2.97516 16.6754 2.73014 16.5634 2.53531 16.3838C2.40803 16.2665 2.27179 16.0072 2.19793 15.316C2.12587 14.6416 2.125 13.7142 2.125 12.4089V8.24777C2.125 6.44336 2.1263 5.15227 2.25684 4.17082C2.38508 3.20666 2.62777 2.6357 3.04267 2.21631Z" fill="#877EFF"/>
</svg>
