<svg width="18" height="18" viewBox="0 0 18 18" fill="none" xmlns="http://www.w3.org/2000/svg">
<path fill-rule="evenodd" clip-rule="evenodd" d="M8.95227 0.0415041L10.2501 0.0415043C10.5953 0.0415043 10.8751 0.321326 10.8751 0.666504C10.8751 1.01168 10.5953 1.2915 10.2501 1.2915H9.00008C7.01823 1.2915 5.59471 1.29283 4.51139 1.43848C3.44606 1.58171 2.80379 1.85412 2.32908 2.32883C1.85436 2.80355 1.58195 3.44581 1.43872 4.51115C1.29308 5.59447 1.29175 7.01798 1.29175 8.99984C1.29175 10.9817 1.29308 12.4052 1.43872 13.4885C1.58195 14.5539 1.85436 15.1961 2.32908 15.6708C2.80379 16.1456 3.44606 16.418 4.51139 16.5612C5.59471 16.7068 7.01823 16.7082 9.00008 16.7082C10.9819 16.7082 12.4055 16.7068 13.4888 16.5612C14.5541 16.418 15.1964 16.1456 15.6711 15.6708C16.1458 15.1961 16.4182 14.5539 16.5614 13.4885C16.7071 12.4052 16.7084 10.9817 16.7084 8.99984V7.74984C16.7084 7.40466 16.9882 7.12484 17.3334 7.12484C17.6786 7.12484 17.9584 7.40466 17.9584 7.74984V9.04765C17.9584 10.9713 17.9584 12.4788 17.8003 13.6551C17.6384 14.859 17.3006 15.809 16.555 16.5547C15.8093 17.3004 14.8593 17.6382 13.6553 17.8C12.4791 17.9582 10.9716 17.9582 9.04789 17.9582H8.95227C7.02861 17.9582 5.52108 17.9582 4.34484 17.8C3.14089 17.6382 2.19087 17.3004 1.44519 16.5547C0.69952 15.809 0.361737 14.859 0.19987 13.6551C0.041729 12.4788 0.0417375 10.9713 0.0417482 9.04765V8.95202C0.0417375 7.02836 0.041729 5.52083 0.19987 4.34459C0.361737 3.14064 0.69952 2.19063 1.44519 1.44495C2.19087 0.699276 3.14089 0.361492 4.34484 0.199626C5.52107 0.0414849 7.0286 0.0414934 8.95227 0.0415041ZM12.9755 0.896433C14.1154 -0.243472 15.9636 -0.243472 17.1035 0.896433C18.2434 2.03634 18.2434 3.88449 17.1035 5.02439L11.5634 10.5645C11.254 10.8739 11.0602 11.0678 10.8439 11.2365C10.5892 11.4352 10.3135 11.6055 10.0219 11.7445C9.77426 11.8625 9.5142 11.9492 9.09907 12.0875L6.67863 12.8943C6.23176 13.0433 5.73908 12.927 5.40601 12.5939C5.07293 12.2608 4.95663 11.7682 5.10558 11.3213L5.91239 8.90086C6.05074 8.48572 6.1374 8.22566 6.25541 7.97805C6.3944 7.6864 6.56476 7.41076 6.76345 7.15602C6.93215 6.93973 7.126 6.74591 7.43545 6.4365L12.9755 0.896433ZM16.2196 1.78032C15.5679 1.12857 14.5112 1.12857 13.8594 1.78032L13.5456 2.09417C13.5645 2.17405 13.5909 2.26923 13.6278 2.37539C13.7472 2.71961 13.9732 3.17293 14.4001 3.59983C14.827 4.02673 15.2803 4.25272 15.6245 4.37215C15.7307 4.40898 15.8259 4.43544 15.9058 4.45436L16.2196 4.14051C16.8714 3.48876 16.8714 2.43207 16.2196 1.78032ZM14.921 5.43908C14.4911 5.25416 13.9902 4.95772 13.5162 4.48371C13.0422 4.00971 12.7458 3.50885 12.5608 3.07888L8.348 7.29172C8.00091 7.63881 7.86478 7.77646 7.74909 7.92479C7.60623 8.10795 7.48375 8.30613 7.38382 8.51582C7.30289 8.68563 7.24064 8.86895 7.08542 9.33462L6.72551 10.4144L7.58555 11.2744L8.66529 10.9145C9.13097 10.7593 9.31428 10.697 9.4841 10.6161C9.69378 10.5162 9.89196 10.3937 10.0751 10.2508C10.2235 10.1351 10.3611 9.99901 10.7082 9.65191L14.921 5.43908Z" fill="#877EFF"/>
</svg>
