<svg width="16" height="15" viewBox="0 0 16 15" fill="none" xmlns="http://www.w3.org/2000/svg">
<path fill-rule="evenodd" clip-rule="evenodd" d="M9.89499 0.840012C9.9057 0.849534 9.91643 0.85908 9.9272 0.868648L13.2721 3.84185C13.8962 4.39659 14.4136 4.85646 14.7688 5.27392C15.1421 5.71268 15.408 6.18505 15.408 6.76958C15.408 7.35412 15.1421 7.82649 14.7688 8.26524C14.4136 8.68271 13.8962 9.14257 13.2721 9.69732L9.9272 12.6705C9.91643 12.6801 9.90569 12.6896 9.89499 12.6992C9.62463 12.9395 9.37231 13.1639 9.15432 13.3078C8.94026 13.4492 8.551 13.6545 8.11494 13.4586C7.67888 13.2628 7.57372 12.8355 7.53714 12.5816C7.49988 12.3231 7.49994 11.9854 7.5 11.6236C7.5 11.6093 7.5 11.5949 7.5 11.5805V10.2734C6.29042 10.3568 5.06469 10.678 3.99252 11.2005C2.73173 11.8148 1.72483 12.6859 1.17837 13.7268C1.04471 13.9814 0.754581 14.1119 0.47539 14.0431C0.196199 13.9742 0 13.7238 0 13.4362C0 9.50211 1.15115 6.94047 2.79708 5.36562C4.23175 3.99291 5.9803 3.42964 7.5 3.31176V1.95862C7.5 1.94422 7.5 1.92985 7.5 1.91552C7.49994 1.55375 7.49988 1.2161 7.53714 0.957559C7.57372 0.703665 7.67888 0.276338 8.11494 0.0805182C8.551 -0.115301 8.94026 0.0899991 9.15432 0.231334C9.37231 0.375257 9.62463 0.599617 9.89499 0.840012ZM8.75256 1.50038C8.84678 1.58113 8.95928 1.68072 9.09674 1.80291L12.407 4.74535C13.0746 5.33875 13.525 5.74108 13.8168 6.084C14.0971 6.41334 14.158 6.60567 14.158 6.76958C14.158 6.93349 14.0971 7.12583 13.8168 7.45516C13.525 7.79809 13.0746 8.20041 12.407 8.79382L9.09674 11.7363C8.95928 11.8584 8.84678 11.958 8.75256 12.0388C8.75031 11.9147 8.75 11.7645 8.75 11.5805V9.62673C8.75 9.28155 8.47018 9.00173 8.125 9.00173C6.53119 9.00173 4.87496 9.38 3.44498 10.0768C2.6793 10.4499 1.9665 10.9205 1.3616 11.4836C1.66891 8.94443 2.57701 7.30619 3.66125 6.26879C5.01129 4.97706 6.71702 4.53744 8.125 4.53744C8.47018 4.53744 8.75 4.25762 8.75 3.91244V1.95862C8.75 1.7747 8.75031 1.62445 8.75256 1.50038Z" fill="#877EFF"/>
</svg>
