<svg width="18" height="16" viewBox="0 0 18 16" fill="none" xmlns="http://www.w3.org/2000/svg">
<path fill-rule="evenodd" clip-rule="evenodd" d="M3.6453 1.57494C2.26281 2.20688 1.25 3.70997 1.25 5.50236C1.25 7.33353 1.99935 8.74497 3.07357 9.95459C3.95894 10.9515 5.0307 11.7778 6.07594 12.5836C6.32419 12.775 6.57096 12.9653 6.81337 13.1563C7.25173 13.5019 7.64277 13.8052 8.01967 14.0255C8.39678 14.2458 8.70033 14.3464 8.95833 14.3464C9.21633 14.3464 9.51988 14.2458 9.89699 14.0255C10.2739 13.8052 10.6649 13.5019 11.1033 13.1563C11.3457 12.9653 11.5925 12.775 11.8407 12.5836C12.886 11.7778 13.9577 10.9515 14.8431 9.95459C15.9173 8.74497 16.6667 7.33353 16.6667 5.50236C16.6667 3.70997 15.6539 2.20688 14.2714 1.57494C12.9283 0.961007 11.1236 1.12359 9.40864 2.90539C9.29081 3.0278 9.12823 3.09697 8.95833 3.09697C8.78843 3.09697 8.62585 3.0278 8.50803 2.90539C6.79305 1.12359 4.98839 0.961007 3.6453 1.57494ZM8.95833 1.60379C7.03162 -0.120022 4.87413 -0.361166 3.12564 0.438077C1.27893 1.28221 0 3.2423 0 5.50236C0 7.72364 0.925414 9.41815 2.13893 10.7846C3.11073 11.8789 4.30019 12.7947 5.35069 13.6036C5.58882 13.787 5.81982 13.9648 6.03951 14.138C6.46638 14.4745 6.92462 14.8333 7.38902 15.1047C7.85321 15.376 8.383 15.5964 8.95833 15.5964C9.53366 15.5964 10.0634 15.376 10.5276 15.1047C10.992 14.8333 11.4503 14.4745 11.8771 14.138C12.0968 13.9648 12.3278 13.787 12.566 13.6036C13.6165 12.7947 14.8059 11.8789 15.7777 10.7846C16.9913 9.41815 17.9167 7.72364 17.9167 5.50236C17.9167 3.2423 16.6377 1.28221 14.791 0.438077C13.0425 -0.361166 10.885 -0.120022 8.95833 1.60379Z" fill="#877EFF"/>
</svg>
