<svg width="21" height="21" viewBox="0 0 21 21" fill="none" xmlns="http://www.w3.org/2000/svg">
<path fill-rule="evenodd" clip-rule="evenodd" d="M8 0.25C5.37665 0.25 3.25 2.37665 3.25 5C3.25 7.62335 5.37665 9.75 8 9.75C10.6234 9.75 12.75 7.62335 12.75 5C12.75 2.37665 10.6234 0.25 8 0.25ZM4.75 5C4.75 3.20507 6.20507 1.75 8 1.75C9.79493 1.75 11.25 3.20507 11.25 5C11.25 6.79493 9.79493 8.25 8 8.25C6.20507 8.25 4.75 6.79493 4.75 5Z" fill="#877EFF"/>
<path d="M14 1.25C13.5858 1.25 13.25 1.58579 13.25 2C13.25 2.41421 13.5858 2.75 14 2.75C15.2426 2.75 16.25 3.75736 16.25 5C16.25 6.24264 15.2426 7.25 14 7.25C13.5858 7.25 13.25 7.58579 13.25 8C13.25 8.41421 13.5858 8.75 14 8.75C16.0711 8.75 17.75 7.07107 17.75 5C17.75 2.92893 16.0711 1.25 14 1.25Z" fill="#877EFF"/>
<path fill-rule="evenodd" clip-rule="evenodd" d="M2.67815 12.5204C4.07752 11.7208 5.96067 11.25 8 11.25C10.0393 11.25 11.9225 11.7208 13.3219 12.5204C14.7 13.3079 15.75 14.5101 15.75 16C15.75 17.4899 14.7 18.6921 13.3219 19.4796C11.9225 20.2792 10.0393 20.75 8 20.75C5.96067 20.75 4.07752 20.2792 2.67815 19.4796C1.3 18.6921 0.25 17.4899 0.25 16C0.25 14.5101 1.3 13.3079 2.67815 12.5204ZM3.42236 13.8228C2.26701 14.483 1.75 15.2807 1.75 16C1.75 16.7193 2.26701 17.517 3.42236 18.1772C4.55649 18.8253 6.17334 19.25 8 19.25C9.82666 19.25 11.4435 18.8253 12.5776 18.1772C13.733 17.517 14.25 16.7193 14.25 16C14.25 15.2807 13.733 14.483 12.5776 13.8228C11.4435 13.1747 9.82666 12.75 8 12.75C6.17334 12.75 4.55649 13.1747 3.42236 13.8228Z" fill="#877EFF"/>
<path d="M17.1607 12.2674C16.7561 12.1787 16.3561 12.4347 16.2674 12.8393C16.1787 13.2439 16.4347 13.6439 16.8393 13.7326C17.6317 13.9064 18.2649 14.2048 18.6829 14.5468C19.1014 14.8892 19.25 15.2237 19.25 15.5C19.25 15.7507 19.1294 16.045 18.7969 16.3539C18.462 16.665 17.9475 16.9524 17.2838 17.1523C16.8871 17.2717 16.6624 17.69 16.7818 18.0867C16.9013 18.4833 17.3196 18.708 17.7162 18.5886C18.5388 18.3409 19.2743 17.9578 19.8178 17.4529C20.3637 16.9457 20.75 16.2786 20.75 15.5C20.75 14.6352 20.2758 13.912 19.6328 13.3859C18.9893 12.8593 18.1225 12.4783 17.1607 12.2674Z" fill="#877EFF"/>
</svg>
