<svg width="19" height="19" viewBox="0 0 19 19" fill="none" xmlns="http://www.w3.org/2000/svg">
<path fill-rule="evenodd" clip-rule="evenodd" d="M15.1197 2.02553C14.1447 2.19897 12.8302 2.63535 10.9855 3.25026L6.80943 4.64228C5.32607 5.13674 4.25167 5.49541 3.4928 5.81817C2.69941 6.15561 2.41718 6.39083 2.32551 6.5485C2.04318 7.03416 2.04318 7.63397 2.32551 8.11962C2.41718 8.27729 2.69941 8.51251 3.4928 8.84995C4.25167 9.17272 5.32607 9.53139 6.80943 10.0258C6.83285 10.0336 6.85598 10.0413 6.87882 10.0489C7.28397 10.1837 7.59893 10.2885 7.86988 10.4699C8.13091 10.6446 8.35515 10.8688 8.52991 11.1299C8.71129 11.4008 8.81606 11.7158 8.95082 12.1209C8.95842 12.1438 8.96611 12.1669 8.97392 12.1903C9.46837 13.6737 9.82704 14.7481 10.1498 15.507C10.4872 16.3003 10.7225 16.5826 10.8801 16.6742C11.3658 16.9566 11.9656 16.9566 12.4513 16.6742C12.6089 16.5826 12.8441 16.3003 13.1816 15.507C13.5043 14.7481 13.863 13.6737 14.3575 12.1903L15.7495 8.01427C16.3644 6.16953 16.8008 4.85506 16.9742 3.88008C17.1485 2.90046 17.0153 2.48433 16.7654 2.23439C16.5154 1.98444 16.0993 1.85126 15.1197 2.02553ZM14.8954 0.764812C15.9806 0.571771 16.9579 0.616014 17.6708 1.32893C18.3837 2.04184 18.428 3.01919 18.2349 4.10435C18.0431 5.18296 17.5752 6.58663 16.9828 8.36375L15.562 12.6261C15.0799 14.0722 14.7054 15.196 14.3599 16.0081C14.0267 16.7915 13.6568 17.4546 13.0948 17.7813C12.2113 18.2949 11.1201 18.2949 10.2366 17.7813C9.67461 17.4546 9.30464 16.7915 8.97144 16.0081C8.62602 15.196 8.25145 14.0723 7.7694 12.6261L7.75912 12.5953C7.59024 12.0886 7.53876 11.9512 7.46582 11.8422C7.3842 11.7203 7.27946 11.6156 7.15753 11.5339C7.04858 11.461 6.91115 11.4095 6.4045 11.2406L6.37363 11.2303C4.92747 10.7483 3.80378 10.3737 2.99162 10.0283C2.20822 9.69511 1.54518 9.32515 1.21848 8.76319C0.704841 7.87967 0.704842 6.78846 1.21848 5.90493C1.54518 5.34298 2.20822 4.97301 2.99162 4.63981C3.80379 4.29438 4.9275 3.91982 6.37368 3.43776L10.636 2.01698C12.4131 1.42459 13.8168 0.956687 14.8954 0.764812ZM14.7338 4.27094C14.9825 4.52235 14.9802 4.92773 14.7288 5.17638L11.3141 8.55343C11.0627 8.80208 10.6573 8.79983 10.4087 8.54842C10.16 8.297 10.1623 7.89162 10.4137 7.64297L13.8284 4.26592C14.0798 4.01727 14.4852 4.01952 14.7338 4.27094Z" fill="#877EFF" fill-opacity="0.937255"/>
</svg>
